<svg xmlns="http://www.w3.org/2000/svg" data-name="Layer 2" viewBox="0 0 100 100" x="0px" y="0px"><title>Artboard 33</title><path d="M50,9.81A40.19,40.19,0,1,0,90.19,50,40.23,40.23,0,0,0,50,9.81Zm0,77.37A37.19,37.19,0,1,1,87.19,50,37.23,37.23,0,0,1,50,87.19ZM35.51,38.63,26.79,43.7a1.5,1.5,0,0,1-1.51-2.59l6.48-3.76-6.48-3.76A1.5,1.5,0,0,1,26.79,31L35.51,36a1.5,1.5,0,0,1,0,2.59Zm39.2-5.06-6.48,3.76,6.48,3.76A1.5,1.5,0,1,1,73.2,43.7l-8.72-5.06a1.5,1.5,0,0,1,0-2.59L73.2,31a1.5,1.5,0,1,1,1.51,2.59ZM69.94,48.82a1.5,1.5,0,0,1,0,2.12l-3.81,3.89h0a1.5,1.5,0,0,1-1.06.44h0a1.5,1.5,0,0,1-1-.43v0l-6.47-6.47L51.12,54.8l0,0a1.5,1.5,0,0,1-1.06.44h0A1.49,1.49,0,0,1,49,54.85l0,0-6.43-6.43L36,54.83h0a1.5,1.5,0,0,1-1.06.44h0a1.49,1.49,0,0,1-1.06-.44h0L30,51a1.5,1.5,0,1,1,2.12-2.12L35,51.66l6.47-6.47a1.5,1.5,0,0,1,2.12,0L50,51.66l6.47-6.47a1.5,1.5,0,0,1,2.12,0l6.46,6.46,2.75-2.81A1.5,1.5,0,0,1,69.94,48.82Z"/></svg>
