<svg xmlns="http://www.w3.org/2000/svg" data-name="Layer 2" viewBox="0 0 100 100" x="0px" y="0px"><title>Artboard 27</title><path d="M50,9.81A40.19,40.19,0,1,0,90.19,50,40.23,40.23,0,0,0,50,9.81Zm0,77.37A37.19,37.19,0,1,1,87.19,50,37.23,37.23,0,0,1,50,87.19ZM21.25,35.08a1.5,1.5,0,1,1,.89-2.87c2.88.9,6.53-.91,9.09-4.5a1.5,1.5,0,1,1,2.44,1.74c-2.69,3.78-6.49,6-10,6A8,8,0,0,1,21.25,35.08Zm56.62-2.87a1.5,1.5,0,1,1,.89,2.87,8,8,0,0,1-2.38.35c-3.54,0-7.35-2.2-10-6a1.5,1.5,0,1,1,2.44-1.74C71.33,31.3,75,33.11,77.86,32.22ZM38.49,42.85a10.13,10.13,0,0,1-17.08,0,1.5,1.5,0,1,1,2.53-1.62,7.13,7.13,0,0,0,12,0,1.5,1.5,0,1,1,2.53,1.62Zm40.1,0a10.13,10.13,0,0,1-17.08,0A1.5,1.5,0,1,1,64,41.24a7.13,7.13,0,0,0,12,0,1.5,1.5,0,1,1,2.53,1.62Zm-19,10.07a1.5,1.5,0,0,1-1.5,1.5H41.89a1.5,1.5,0,1,1,0-3H58.11A1.5,1.5,0,0,1,59.61,52.92Z"/></svg>
