<svg xmlns="http://www.w3.org/2000/svg" data-name="Layer 2" viewBox="0 0 100 100" x="0px" y="0px"><title>Artboard 1</title><path d="M50,90.19A40.19,40.19,0,1,0,9.81,50,40.23,40.23,0,0,0,50,90.19Zm0-77.37A37.19,37.19,0,1,1,12.81,50,37.23,37.23,0,0,1,50,12.81ZM31.35,43.71A6.31,6.31,0,1,0,25,37.4,6.32,6.32,0,0,0,31.35,43.71Zm0-9.62A3.31,3.31,0,1,1,28,37.4,3.31,3.31,0,0,1,31.35,34.09Zm37.29,9.62a6.31,6.31,0,1,0-6.31-6.31A6.32,6.32,0,0,0,68.65,43.71Zm0-9.62a3.31,3.31,0,1,1-3.31,3.31A3.31,3.31,0,0,1,68.65,34.09ZM28.55,49.22a21.45,21.45,0,1,0,42.89,0,1.5,1.5,0,0,0-1.5-1.5H30.05A1.5,1.5,0,0,0,28.55,49.22ZM50,67.67a18.46,18.46,0,0,1-16.83-11H66.83A18.46,18.46,0,0,1,50,67.67ZM68.39,50.72a18.29,18.29,0,0,1-.51,3H32.12a18.29,18.29,0,0,1-.51-3Z"/></svg>
