<svg xmlns="http://www.w3.org/2000/svg" data-name="Layer 2" viewBox="0 0 100 100" x="0px" y="0px"><title>Artboard 29</title><path d="M50,90.19A40.19,40.19,0,1,0,9.81,50,40.23,40.23,0,0,0,50,90.19Zm0-77.37A37.19,37.19,0,1,1,12.81,50,37.23,37.23,0,0,1,50,12.81ZM34.53,57.38c3.4-2,11.37-6.66,18.14-6.66,6.06,0,8.92.87,12.69,2.69a1.5,1.5,0,1,1-1.3,2.7c-3-1.44-5.4-2.39-11.39-2.39S39.24,58.1,36,60a1.5,1.5,0,0,1-1.52-2.59ZM31.35,45.72A6.31,6.31,0,1,0,25,39.41,6.32,6.32,0,0,0,31.35,45.72Zm0-9.62A3.31,3.31,0,1,1,28,39.41,3.31,3.31,0,0,1,31.35,36.1Zm37.29,9.62a6.31,6.31,0,1,0-6.31-6.31A6.32,6.32,0,0,0,68.65,45.72Zm0-9.62a3.31,3.31,0,1,1-3.31,3.31A3.31,3.31,0,0,1,68.65,36.1Z"/></svg>
